<?xml version="1.0" encoding="UTF-8"?>
<svg width="824" height="433" data-name="Layer 1" version="1.1" viewBox="0 0 824 433" xmlns="http://www.w3.org/2000/svg" xmlns:cc="http://creativecommons.org/ns#" xmlns:dc="http://purl.org/dc/elements/1.1/" xmlns:rdf="http://www.w3.org/1999/02/22-rdf-syntax-ns#" xmlns:xlink="http://www.w3.org/1999/xlink">
 <metadata>
  <rdf:RDF>
   <cc:Work rdf:about="">
    <dc:format>image/svg+xml</dc:format>
    <dc:type rdf:resource="http://purl.org/dc/dcmitype/StillImage"/>
    <dc:title>air support</dc:title>
   </cc:Work>
  </rdf:RDF>
 </metadata>
 <defs>
  <style>.cls-1 {
        fill: #fc3;
      }

      .cls-2 {
        fill: #1a1a1a;
      }

      .cls-3 {
        fill: #fff;
      }</style>
 </defs>
 <title>air support</title>
 <g transform="translate(-5 -294)">
  <g transform="matrix(-.54 .26 .26 .54 436 384)" data-name="Layer 2">
   <g data-name="Layer 1">
    <g fill="#fc3">
     <rect class="cls-1" x="98" y="80" width="17" height="0"/>
     <path class="cls-1" d="m114 104h-17v51c0.72-0.1 1.4-0.21 2.1-0.33h0.14a79 79 0 0 0 15-3.9z"/>
     <path class="cls-1" d="m24 115c0 0.44 0.08 0.88 0.14 1.3s0.1 0.61 0.15 0.92 0.12 0.73 0.2 1.1 0.14 0.68 0.23 1 0.15 0.62 0.23 0.93 0.21 0.75 0.33 1.1 0.16 0.5 0.25 0.76c0.14 0.42 0.28 0.84 0.44 1.2 0.06 0.16 0.13 0.32 0.2 0.48 6.2 16 25 28 47 31v-85c-23 3.2-41 15-47 31-0.07 0.16-0.14 0.32-0.2 0.48-0.16 0.42-0.3 0.84-0.44 1.3-0.09 0.25-0.17 0.5-0.25 0.76s-0.22 0.74-0.33 1.1-0.16 0.62-0.23 0.94-0.16 0.68-0.23 1-0.14 0.73-0.2 1.1-0.11 0.62-0.15 0.93-0.1 0.87-0.14 1.3c0 0.25-0.06 0.5-0.07 0.75-0.05 0.7-0.08 1.4-0.08 2.1s0 1.4 0.08 2.1c0.04 0.28 0.04 0.53 0.04 0.78z"/>
     <path class="cls-1" d="m147 109c-0.05-0.39-0.08-0.78-0.14-1.2s-0.17-1-0.27-1.4c0-0.26-0.09-0.51-0.15-0.77q-0.18-0.81-0.42-1.6c0-0.13-0.07-0.27-0.11-0.4h-7.6v31a38 38 0 0 0 6.6-11l0.09-0.21a32 32 0 0 0 1.2-3.7c0.09-0.32 0.17-0.64 0.25-1s0.13-0.55 0.19-0.83c0.12-0.58 0.22-1.2 0.31-1.7l0.06-0.44c0.06-0.52 0.12-1 0.16-1.6 0-0.18 0-0.37 0.05-0.56 0-0.65 0.07-1.3 0.07-2s0-1.6-0.09-2.3c-0.03-0.28-0.08-0.64-0.12-1z"/>
    </g>
    <circle class="cls-2" cx="51" cy="100" r="12" fill="#1a1a1a"/>
    <path class="cls-3" d="m184 24h-71a16 16 0 0 0-16 16v40h87a16 16 0 0 0 16-16v-24a16 16 0 0 0-16-16z" fill="#fff"/>
    <path class="cls-2" d="m184 0h-71a40 40 0 0 0-40 40v6c-42 4.6-74 33-74 67 0 37 38 67 86 67s86-30 86-67a54 54 0 0 0-0.76-8.8h14a40 40 0 0 0 40-40v-24a40 40 0 0 0-40-40zm-111 104v51c-28-3.9-50-22-50-43s21-39 50-43zm41 47a80 80 0 0 1-17 4.3v-51h17zm24-16v-31h7.6a31 31 0 0 1 1.3 8.8c0 8.2-3.3 16-8.9 22zm62-71a16 16 0 0 1-4.7 11l-0.05 0.05a16 16 0 0 1-11 4.6h-87v-40a16 16 0 0 1 4.6-11l0.11-0.09a16 16 0 0 1 1.9-1.6 15 15 0 0 1 2.3-1.4c0.5-0.24 1-0.45 1.5-0.64a16 16 0 0 1 5.3-0.94h71a16 16 0 0 1 16 16z" fill="#1a1a1a"/>
   </g>
  </g>
 </g>
 <g transform="translate(-50 -57)" fill="#5b9edf">
  <rect x="92" y="124" width="201" height="22" rx="10" ry="10"/>
  <rect x="137" y="142" width="201" height="22" rx="10" ry="10"/>
  <rect x="60" y="158" width="201" height="22" rx="10" ry="10"/>
 </g>
 <g transform="translate(-5 -294)">
  <g transform="matrix(.57 0 0 .37 743 336)" stroke-width=".54">
   <path d="m-173 760c0 18-8 19-18 19s-18-1.5-18-19 18-52 18-52 18 34 18 52z" fill="#ff6584"/>
   <path d="m-182 770c0 8.2-4.5 9.9-8.9 9.9s-7.3-1.8-7.3-9.9c0-8.2 8.1-24 8.1-24s8.1 16 8.1 24z" opacity=".1"/>
  </g>
 </g>
 <g transform="translate(-5 -294)">
  <g transform="matrix(-1 0 0 1 883 0)">
   <g transform="translate(87 7.1)">
    <g fill="#b2b1b4">
     <path transform="translate(-158 -94)" d="m767 701c-70-69-138-76-186-69-29 4.7-56 19-78 40-17 17-59 40-156 33-149-9.6-189 97-189 97h779c-118-53-118-52-171-102z" fill="#40384e"/>
    </g>
    <path d="m449 567c-10 0.078-20 0.99-29 2.4-29 4.7-56 19-78 40-17 17-59 40-156 33-91-5.8-141 31-166 61h677c-29-13-60-34-92-66-57-56-112-71-157-71z" fill="#141424" fill-opacity=".79"/>
   </g>
  </g>
 </g>
 <g transform="translate(-5 -294)">
  <g transform="matrix(1.4 0 0 1 757 -129)" stroke-width=".54">
   <path d="m-173 760c0 18-8 19-18 19s-18-1.5-18-19 18-52 18-52 18 34 18 52z" fill="#ff6584"/>
   <path d="m-182 770c0 8.2-4.5 9.9-8.9 9.9s-7.3-1.8-7.3-9.9c0-8.2 8.1-24 8.1-24s8.1 16 8.1 24z" opacity=".1"/>
  </g>
  <g transform="matrix(1 0 0 .66 281 141)">
   <g transform="translate(38 39)" stroke-width=".54">
    <path d="m-173 760c0 18-8 23-18 23s-18-4.8-18-23 18-52 18-52 18 34 18 52z" fill="#ff6584"/>
    <path d="m-182 770c0 8.2-3.6 12-8.1 12s-8.1-4.2-8.1-12c0-8.2 8.1-24 8.1-24s8.1 16 8.1 24z" opacity=".1"/>
   </g>
  </g>
 </g>
 <g transform="matrix(.73 0 0 .73 329 -72)" fill="#2778c7">
  <rect x="92" y="124" width="201" height="22" rx="10" ry="10"/>
  <rect x="137" y="134" width="201" height="22" rx="10" ry="10"/>
  <rect x="60" y="112" width="201" height="22" rx="10" ry="10"/>
 </g>
 <g transform="matrix(.73 0 0 .73 539 79)" fill="#79afe5">
  <rect x="100" y="124" width="201" height="22" rx="10" ry="10"/>
  <rect x="137" y="142" width="201" height="22" rx="10" ry="10"/>
  <rect x="175" y="104" width="201" height="22" rx="10" ry="10"/>
 </g>
</svg>
